Coordinates
version=1
nRows=13
nColumns=36
inDegrees=yes

Units are S.I. units (second, meters, Newtons, ...)
If the header above contains a line with 'inDegrees', this indicates whether rotational values are in degrees (yes) or radians (no).

endheader
time	pelvis_tilt	pelvis_list	pelvis_rotation	pelvis_tx	pelvis_ty	pelvis_tz	hip_flexion_r	hip_adduction_r	hip_rotation_r	knee_angle_r	knee_angle_r_beta	ankle_angle_r	subtalar_angle_r	mtp_angle_r	hip_flexion_l	hip_adduction_l	hip_rotation_l	knee_angle_l	knee_angle_l_beta	ankle_angle_l	subtalar_angle_l	mtp_angle_l	lumbar_extension	lumbar_bending	lumbar_rotation	arm_flex_r	arm_add_r	arm_rot_r	elbow_flex_r	pro_sup_r	arm_flex_l	arm_add_l	arm_rot_l	elbow_flex_l	pro_sup_l
      0.46000000	      0.03455675	      0.47892533	      5.74134938	      0.25167367	      1.16444148	     -0.22974693	      1.90211193	      2.79349839	     -7.04023801	      7.23297995	      0.12623931	      7.22438198	     -2.23099319	     -5.90181959	     25.45913496	     -0.60148346	     -1.72387582	     38.14432005	      0.66574398	     -2.98163515	    -10.14273547	     -5.90181959	    -14.66911046	      6.37224130	     -2.01621099	    -11.70364904	    -10.63525859	    -13.22004595	     56.81362945	    110.25862695	    -14.02617434	     -6.40356355	     -6.28527150	     53.90582877	    108.33354862
      0.47000000	      0.12636548	      0.29599195	      5.52134379	      0.26027816	      1.16399333	     -0.22914534	      1.12713482	      3.11830863	     -6.78627393	      6.79899975	      0.11866493	      7.58783465	     -2.08852795	     -5.92617398	     25.65585774	     -0.70431202	     -1.69858160	     36.10478027	      0.63014729	     -2.69896398	     -9.18945697	     -5.92617398	    -14.78181302	      6.36978151	     -1.97411915	    -11.64610351	    -10.68442764	    -13.23195157	     57.03531302	    110.24697938	    -13.83208201	     -6.37472266	     -6.32117944	     53.88824791	    108.31591116
      0.48000000	      0.12080266	      0.08117831	      5.32615788	      0.26888183	      1.16329712	     -0.22857512	      0.47775257	      3.46444060	     -6.49768626	      6.40710106	      0.11182501	      7.90485082	     -2.00051332	     -5.94371517	     25.95221961	     -0.80244191	     -1.57886346	     34.13114737	      0.59570090	     -2.56844864	     -8.26460069	     -5.94371517	    -14.77074596	      6.38165844	     -1.94650598	    -11.63186376	    -10.73786052	    -13.21142868	     57.22398415	    110.24382157	    -13.65860603	     -6.34682735	     -6.35809331	     53.89676540	    108.31120783
      0.49000000	      0.09034862	     -0.15512170	      5.12055480	      0.27751115	      1.16243888	     -0.22798726	     -0.12816925	      3.82346789	     -6.18347955	      6.06061343	      0.10577766	      8.21961218	     -1.93267656	     -5.95541460	     26.26048173	     -0.92082579	     -1.45787196	     32.21921406	      0.56233137	     -2.52273179	     -7.36813134	     -5.95541460	    -14.73411682	      6.40151016	     -1.91669305	    -11.62518504	    -10.80111077	    -13.17649252	     57.38046390	    110.24404070	    -13.49199660	     -6.32987365	     -6.40943530	     53.89625414	    108.30957933
      0.50000000	      0.31169019	     -0.31270289	      4.82317153	      0.28641373	      1.16184726	     -0.22720614	     -1.08100905	      4.13545179	     -5.68716063	      5.60553533	      0.09783505	      8.58524042	     -1.97499431	     -5.99076715	     26.23328443	     -1.10475811	     -1.71901386	     30.37170454	      0.53008624	     -2.11546652	     -5.95785302	     -5.99076715	    -14.97944755	      6.31470089	     -1.84110533	    -11.60419559	    -10.82572313	    -13.14453543	     57.52179436	    110.20654802	    -13.29963060	     -6.34571642	     -6.46677608	     53.80989658	    108.32208691
      0.51000000	      0.30747613	     -0.51383572	      4.56614262	      0.29524755	      1.16083268	     -0.22651975	     -1.73206390	      4.45046233	     -5.25807146	      5.26353249	      0.09186597	      8.93147553	     -2.00029653	     -6.02111789	     26.46487005	     -1.25584136	     -1.82996947	     28.61745120	      0.49946875	     -2.02371129	     -4.89264386	     -6.02111789	    -14.96300996	      6.25687694	     -1.81506269	    -11.62546607	    -10.86134890	    -13.08711123	     57.63352220	    110.16422246	    -13.13686001	     -6.34139319	     -6.55472599	     53.69849708	    108.33784091
      0.52000000	      0.24141750	     -0.70064143	      4.31811718	      0.30413580	      1.15964999	     -0.22588644	     -2.30332284	      4.72937893	     -4.87412460	      4.96334159	      0.08662665	      9.30890364	     -1.97003292	     -6.04023325	     26.74021101	     -1.37627105	     -1.93928732	     26.92558642	      0.46994014	     -2.04234551	     -3.96161383	     -6.04023325	    -14.86950361	      6.17161803	     -1.81583306	    -11.68183827	    -10.89939575	    -13.01581441	     57.71676736	    110.12832027	    -12.99370087	     -6.33605437	     -6.66153279	     53.55476846	    108.34432589
      0.53000000	      0.09424882	     -1.06014864	      4.09601339	      0.31302671	      1.15816173	     -0.22522873	     -2.69694431	      5.17207978	     -4.83680353	      4.79023738	      0.08360541	      9.53861302	     -1.95833917	     -6.04435210	     27.18825396	     -1.67035204	     -2.08944440	     25.46885638	      0.44451540	     -1.98833420	     -3.59172014	     -6.04435210	    -14.68885886	      6.27263680	     -1.85610855	    -11.72017640	    -10.92459656	    -12.99493386	     57.78355297	    110.12055282	    -12.96131213	     -6.33714154	     -6.69997002	     53.54337787	    108.34849272
      0.54000000	      0.08522343	     -1.08809744	      3.79465523	      0.32202727	      1.15704214	     -0.22462006	     -3.34406737	      5.26144872	     -4.16136047	      4.53919362	      0.07922387	     10.09410936	     -1.82077956	     -6.06218781	     27.24164333	     -1.65787333	     -2.27878443	     23.72019742	      0.41399554	     -2.03794526	     -2.19375504	     -6.06218781	    -14.67859595	      5.99266541	     -1.81594062	    -11.81178378	    -10.96181829	    -12.83959810	     57.76027953	    110.05848824	    -12.70623538	     -6.30524277	     -6.88764710	     53.21575363	    108.34472195
      0.55000000	      0.07147604	     -1.29045061	      3.50510716	      0.33108526	      1.15573726	     -0.22388315	     -3.91947487	      5.53139943	     -3.81396780	      4.37013528	      0.07627325	     10.49241702	     -1.70096702	     -6.09675924	     27.38603278	     -1.87763447	     -2.66749687	     22.22916265	      0.38797208	     -1.75909311	     -0.95314591	     -6.09675924	    -14.66225561	      5.87704741	     -1.79736196	    -11.85883017	    -10.98070989	    -12.69496447	     57.73319563	    109.92313784	    -12.56673358	     -6.31168603	     -7.02899686	     53.06587198	    108.41225864
      0.56000000	     -0.11346266	     -1.51230922	      3.29993628	      0.34010058	      1.15415423	     -0.22337736	     -4.25580112	      5.79774581	     -3.57733164	      4.30235003	      0.07509017	     10.81406916	     -1.64348679	     -6.10740838	     27.69580610	     -2.01549224	     -2.79983026	     20.75904148	      0.36231362	     -1.80610918	     -0.23867134	     -6.10740838	    -14.44753178	      5.80965273	     -1.85378790	    -11.99533482	    -11.01515427	    -12.61110581	     57.70048870	    109.88580082	    -12.43743800	     -6.30139703	     -7.14687649	     52.95475994	    108.41961147
      0.57000000	     -0.25291930	     -1.70194781	      3.06820038	      0.34920083	      1.15263295	     -0.22281772	     -4.63676693	      6.03000634	     -3.30575379	      4.26087169	      0.07436624	     11.20219579	     -1.58926517	     -6.11834056	     27.89497492	     -2.15446405	     -3.04476186	     19.28597878	      0.33660383	     -1.81857770	      0.58388100	     -6.11834056	    -14.28524578	      5.68919971	     -1.89026169	    -12.11954210	    -11.02617836	    -12.48259156	     57.60198421	    109.84774141	    -12.27215016	     -6.27651588	     -7.29948545	     52.79230954	    108.41921190
      0.58000000	     -0.25227905	     -1.85873856	      2.81630601	      0.35847919	      1.15126938	     -0.22218185	     -5.19159811	      6.23429233	     -3.03985232	      4.19740317	      0.07325851	     11.68343098	     -1.47674093	     -6.15374397	     27.92074141	     -2.34465751	     -3.67667877	     17.90202607	      0.31244930	     -1.55199818	      1.80279585	     -6.15374397	    -14.28393012	      5.50867536	     -1.95546671	    -12.18051911	    -11.05037796	    -12.22287265	     57.39651304	    109.73437996	    -12.12178541	     -6.23883779	     -7.58421216	     52.63479647	    108.46593652
